<mxfile host="app.diagrams.net" modified="2024-06-24T01:47:21.559Z" agent="Mozilla/5.0 (Windows NT 10.0; Win64; x64) AppleWebKit/537.36 (KHTML, like Gecko) Chrome/125.0.0.0 Safari/537.36" version="24.6.2" etag="OAL7nqwuwjn2R4CXGzgy" type="github">
  <diagram name="PÃ¡gina-1" id="zi2jp7CDGM4eHL9-IJbj">
    <mxGraphModel>
      <root>
        <mxCell id="0" />
        <mxCell id="1" parent="0" />
      </root>
    </mxGraphModel>
  </diagram>
</mxfile>
